<?xml version="1.0" encoding="UTF-8"?>
<!DOCTYPE svg PUBLIC "-//W3C//DTD SVG 1.1//EN" "http://www.w3.org/Graphics/SVG/1.1/DTD/svg11.dtd">
<!-- Creator: CorelDRAW -->
<svg xmlns="http://www.w3.org/2000/svg" xml:space="preserve" width="2048px" height="2048px" style="shape-rendering:geometricPrecision; text-rendering:geometricPrecision; image-rendering:optimizeQuality; fill-rule:evenodd; clip-rule:evenodd"
viewBox="0 0 2048 2048"
 xmlns:xlink="http://www.w3.org/1999/xlink">
 <defs>
  <style type="text/css">
   <![CDATA[
    .fil0 {fill:#EF5350}
    .fil2 {fill:#FFFFFE}
    .fil1 {fill:#FFFFFE;fill-rule:nonzero}
   ]]>
  </style>
 </defs>
 <g id="Layer_x0020_1">
  <metadata id="CorelCorpID_0Corel-Layer"/>
  <rect class="fil0" width="2048" height="2048" rx="256.001" ry="256.001"/>
  <polygon class="fil1" points="511.999,1440.06 511.999,1535.87 447.997,1535.87 447.997,1440.06 "/>
  <polygon class="fil1" points="607.998,1535.87 607.998,1631.96 543.996,1631.96 543.996,1535.87 "/>
  <polygon class="fil1" points="703.999,1440.06 703.999,1535.87 639.997,1535.87 639.997,1440.06 "/>
  <polygon class="fil1" points="799.998,1535.87 799.998,1631.96 735.996,1631.96 735.996,1535.87 "/>
  <polygon class="fil1" points="896.004,1440.06 896.004,1535.87 832.002,1535.87 832.002,1440.06 "/>
  <polygon class="fil1" points="1024,1631.83 1024,1728 959.997,1728 959.997,1631.83 "/>
  <polygon class="fil1" points="1120,1536 1120,1632 1056,1632 1056,1536 "/>
  <polygon class="fil1" points="1216,1631.83 1216,1728 1152,1728 1152,1631.83 "/>
  <polygon class="fil1" points="1312,1536 1312,1632 1248,1632 1248,1536 "/>
  <polygon class="fil1" points="1408,1631.83 1408,1728 1344,1728 1344,1631.83 "/>
  <polygon class="fil1" points="1504,1536 1504,1632 1440,1632 1440,1536 "/>
  <polygon class="fil1" points="1600,1631.83 1600,1728 1536,1728 1536,1631.83 "/>
  <path class="fil2" d="M1429.98 254.554c41.1319,0 80.7071,6.64252 117.736,18.8811 -2.70355,-0.0814961 -5.41418,-0.134646 -8.1378,-0.134646 -146.545,0 -265.345,118.8 -265.345,265.345 0,146.545 118.8,265.345 265.345,265.345 132.429,0 242.189,-97.0194 262.108,-223.855 2.1248,16.1551 3.2374,32.6268 3.2374,49.3618 0,155.234 -94.3359,288.429 -228.806,345.395 -14.6268,-15.6496 -31.4339,-29.1969 -49.9701,-40.1587 -34.7988,-20.5772 -74.4296,-31.5036 -114.868,-31.5036 -7.03347,0 -14.0646,0.376772 -21.0638,1.07362 -16.6595,-21.561 -37.0878,-39.9945 -60.3993,-54.3378 -35.6422,-21.9295 -76.5367,-33.4205 -118.382,-33.4205 -9.90237,0 -19.7256,0.643701 -29.4166,1.90866l-0.980316 -3.13229c-12.3579,-39.4843 -34.2154,-75.4016 -63.4524,-104.658 -18.1453,-18.1571 -38.6563,-33.3213 -60.8221,-45.1701 -1.12913,-11.8488 -1.72795,-23.8524 -1.72795,-35.9965 0,-207.078 167.867,-374.945 374.945,-374.945z"/>
  <g id="_484291480">
   <path id="_484291168" class="fil1" d="M1597.5 1408l-538.87 0c-53.615,0 -102.207,-21.7831 -137.389,-56.9658 -35.1815,-35.1839 -56.9634,-83.7757 -56.9634,-137.394 0,-49.8036 18.7311,-95.5135 49.852,-130.101 26.7662,-29.7473 62.7508,-51.2126 103.903,-59.915 4.54016,-45.9272 25.1044,-87.1926 56.0162,-118.106 35.1839,-35.1862 83.7768,-56.9717 137.392,-56.9717 36.6827,0 71.6363,10.2307 101.613,28.6748 24.8232,15.2728 46.2012,36.1701 62.2867,61.5402 3.0189,-0.575197 6.04725,-1.08425 9.0815,-1.52008 9.14174,-1.31575 18.1228,-2.01024 26.8642,-2.01024 35.217,0 69.1371,9.63662 98.5796,27.0484 24.476,14.4732 45.8422,34.4398 62.25,58.8107 8.94213,-1.23898 17.6587,-1.83898 26.1189,-1.83898 46.1174,0 88.6572,16.4457 122.065,43.7729 33.2292,27.1807 57.4182,65.3233 67.0394,108.876 3.05551,13.8331 4.6689,27.815 4.6689,41.739 0,53.5477 -21.8351,102.152 -57.1252,137.411 -35.2051,35.1733 -83.7851,56.9493 -137.381,56.9493z"/>
   <path id="_484291456" class="fil1" d="M857.486 1317.47l-377.512 0c-61.6843,0 -117.678,-25.1858 -158.297,-65.8335 -40.5591,-40.5874 -65.6776,-96.5859 -65.6776,-158.276 0,-16.1244 1.85551,-32.2488 5.36811,-48.1465 11.0941,-50.1957 38.9882,-94.1446 77.2973,-125.472 38.4922,-31.4776 87.4926,-50.413 140.588,-50.413 10.8484,0 22.0347,0.848032 33.5067,2.60433 19.1492,-29.3055 44.6138,-53.3493 74.0292,-70.7067l-0.0318898 -0.0543308c33.9485,-20.0126 73.0489,-31.102 113.68,-31.102 10.1941,0 20.6693,0.767717 31.363,2.30551 4.53426,0.650788 9.11339,1.46221 13.7339,2.43307 18.7725,-30.7984 44.2229,-56.0859 73.9701,-74.3693 34.5532,-21.2374 74.8489,-33.0225 117.16,-33.0225 61.6311,0 117.647,25.2 158.289,65.8666 25.3051,25.3229 44.6079,56.641 55.5485,91.5969 -20.8193,5.81693 -40.6937,14.6032 -59.0469,26.1047 -14.3752,9.00473 -27.8138,19.6807 -40.037,31.9051 -31.6429,31.6441 -53.1059,71.6859 -61.8804,115.204 -38.0516,12.1193 -72.2871,34.1303 -99.1985,64.0394 -37.5071,41.6847 -58.0642,95.4308 -58.0642,151.505 0,13.4681 1.19055,26.7874 3.51496,39.8303l0.00354331 0c3.98859,22.376 11.3126,43.9311 21.6945,64.0016z"/>
  </g>
  <polygon class="fil1" points="519.611,403.096 563.65,505.867 666.419,549.916 729.308,576.872 666.419,603.82 563.648,647.858 519.611,750.627 492.663,813.517 465.707,750.627 421.657,647.859 318.887,603.82 255.998,576.872 318.887,549.916 421.657,505.867 465.707,403.096 492.663,340.207 "/>
  <polygon class="fil1" points="891.387,256.898 916.991,316.65 976.743,342.26 1041.77,370.132 976.743,397.995 916.991,423.6 891.387,483.351 863.522,548.378 835.652,483.351 810.041,423.6 750.289,397.995 685.264,370.132 750.289,342.26 810.041,316.65 835.652,256.898 863.522,191.873 "/>
 </g>
</svg>
